<svg width="128" height="128" viewBox="0 0 128 128" fill="none" xmlns="http://www.w3.org/2000/svg">
<g clip-path="url(#clip0_5415_16192)">
<g clip-path="url(#clip1_5415_16192)">
<path d="M128 64C128 28.6538 99.3462 0 64 0C28.6538 0 0 28.6538 0 64C0 99.3462 28.6538 128 64 128C99.3462 128 128 99.3462 128 64Z" fill="url(#paint0_linear_5415_16192)"/>
<path d="M128 64C128 28.6538 99.3462 0 64 0C28.6538 0 0 28.6538 0 64C0 99.3462 28.6538 128 64 128C99.3462 128 128 99.3462 128 64Z" fill="url(#paint1_linear_5415_16192)" fill-opacity="0.66"/>
</g>
<mask id="mask0_5415_16192" style="mask-type:luminance" maskUnits="userSpaceOnUse" x="34" y="18" width="56" height="91">
<path d="M89.2034 18.5488H34.4375L34.4447 108.993H89.2105L89.2034 18.5488Z" fill="white"/>
</mask>
<g mask="url(#mask0_5415_16192)">
<path fill-rule="evenodd" clip-rule="evenodd" d="M89.1967 90.9156C89.2033 90.9656 89.2063 91.0167 89.2074 91.0682C89.2088 91.467 89.0102 91.8377 88.6808 92.0471L62.2992 108.823C61.9427 109.049 61.4939 109.051 61.1384 108.824L34.9701 92.2577C34.6408 92.0483 34.4404 91.6787 34.4417 91.2799C34.4417 91.2458 34.4431 91.2102 34.4472 91.1761C34.4431 91.139 34.4417 91.1038 34.4417 91.0667L34.4401 70.3686C34.4401 70.3437 34.4415 70.3187 34.4429 70.2948C34.4237 69.9949 34.5197 69.6908 34.7255 69.4552C35.0767 69.0542 35.6515 68.9618 36.103 69.2329L61.8174 84.6232L87.2945 69.3818C87.3356 69.3553 87.3797 69.3344 87.4234 69.3147C87.6099 69.1659 87.8435 69.0777 88.0987 69.0777C88.709 69.0777 89.2059 69.5897 89.2059 70.2198L89.2074 90.755C89.2074 90.8103 89.2033 90.863 89.1967 90.9156ZM36.6561 89.2603L44.2573 84.5243L36.655 73.7345L36.6561 89.2603ZM45.5635 86.3799C43.4549 87.6929 37.6785 91.2916 37.6785 91.2916L58.1581 104.258L45.5635 86.3799ZM65.6332 104.02L85.9707 91.0868L78.1125 86.2141L65.6332 104.02ZM79.4143 84.3558L86.9926 89.0551L86.9915 73.5436L79.4143 84.3558ZM61.2618 86.9309L39.5226 73.9185L61.816 105.566L83.9032 74.0503L62.373 86.9309C62.0301 87.1362 61.6048 87.1362 61.2618 86.9309ZM35.51 64.8132C34.9159 64.792 34.4397 64.2894 34.4396 63.671L34.4375 36.7672C34.4375 36.7001 34.4431 36.6343 34.454 36.5711C34.4431 36.5093 34.4375 36.4461 34.4375 36.3816C34.4361 35.9829 34.6364 35.6119 34.9657 35.404L61.3485 18.7177C61.7025 18.4927 62.1498 18.4928 62.5038 18.7165L88.6723 35.1921C89.0028 35.4 89.2033 35.7711 89.2033 36.1698C89.2033 36.1869 89.2018 36.2027 89.2018 36.2198C89.2018 36.2369 89.2033 36.254 89.2033 36.2724L89.2055 63.5301C89.2055 64.0118 88.9147 64.425 88.5056 64.592L62.3506 79.4293C62.0187 79.6176 61.6151 79.6176 61.2831 79.4293L35.51 64.8132ZM36.6523 38.3962L36.6539 60.0446L46.0626 44.2306L36.6523 38.3962ZM86.989 38.1909L77.4915 44.1083L86.9904 60.0723L86.989 38.1909ZM76.3337 42.161C78.7687 40.6437 85.9626 36.1619 85.9626 36.1619L64.8573 22.8732L76.3337 42.161ZM58.6197 23.1219L37.6784 36.3672L47.2204 42.2845L58.6197 23.1219ZM37.3471 63.2484L61.8167 77.1254L86.2813 63.2473L61.8127 22.1231L37.3471 63.2484Z" fill="#D7CDFF"/>
</g>
</g>
<defs>
<linearGradient id="paint0_linear_5415_16192" x1="8.86888" y1="84.0928" x2="119.73" y2="43.7776" gradientUnits="userSpaceOnUse">
<stop stop-color="#29BCFA"/>
<stop offset="0.43" stop-color="#6464E4"/>
<stop offset="1" stop-color="#B45AFA"/>
</linearGradient>
<linearGradient id="paint1_linear_5415_16192" x1="68" y1="-8" x2="64" y2="128" gradientUnits="userSpaceOnUse">
<stop stop-color="#33117B" stop-opacity="0"/>
<stop offset="0.827261" stop-color="#33117B"/>
</linearGradient>
<clipPath id="clip0_5415_16192">
<rect width="128" height="128" fill="white"/>
</clipPath>
<clipPath id="clip1_5415_16192">
<rect width="128" height="128" fill="white"/>
</clipPath>
</defs>
</svg>
