<svg width="28" height="28" viewBox="0 0 28 28" fill="none" xmlns="http://www.w3.org/2000/svg">
<rect width="28" height="28" rx="14" fill="#141C23"/>
<g clip-path="url(#clip0_5516_2128)">
<path d="M12.3205 22L12.3685 21.902C10.7045 21.1645 9.76 19.642 9.76 17.9715C9.76 16.1705 10.9125 14.5325 13.1515 13.1405L13.5205 12.9115C15.1995 11.863 16.0485 10.6845 16.0485 9.2595C16.0485 7.425 14.6405 6.0825 12.7045 6.0825C9.6005 6.082 6 9.4715 6 13.9915C6 14.7285 6.0955 15.4495 6.2725 16.137L6.384 16.104C6.336 15.728 6.3205 15.4495 6.3205 15.1875C6.3205 12.5175 7.792 10.2255 10.256 8.702L10.496 8.5545C11.0245 8.2435 11.4715 8.064 11.92 8.064C12.512 8.064 12.96 8.457 12.96 9.0305C12.96 9.5215 12.6395 10.0125 11.6005 10.635L11.296 10.8145C8.9925 12.1905 7.712 14.123 7.712 16.268C7.712 18.987 9.6965 21.23 12.3205 22ZM15.6795 6L15.632 6.098C17.296 6.835 18.24 8.3585 18.24 10.029C18.24 11.83 17.0875 13.4675 14.8475 14.8595L14.48 15.088C12.8 16.137 11.952 17.316 11.952 18.7405C11.952 20.5755 13.36 21.918 15.296 21.918C18.4 21.9185 22 18.529 22 14.008C22 13.2715 21.904 12.5515 21.728 11.863L21.6155 11.8955C21.664 12.2725 21.6795 12.5515 21.6795 12.8125C21.6795 15.482 20.2075 17.775 17.744 19.2985L17.504 19.4455C16.976 19.7565 16.528 19.937 16.08 19.937C15.488 19.937 15.0395 19.5445 15.0395 18.97C15.0395 18.479 15.36 17.9875 16.4 17.3655L16.7035 17.185C19.0075 15.81 20.2875 13.877 20.2875 11.7315C20.2875 9.0135 18.304 6.7695 15.6795 6Z" fill="url(#paint0_linear_5516_2128)"/>
</g>
<defs>
<linearGradient id="paint0_linear_5516_2128" x1="6" y1="14" x2="22" y2="14" gradientUnits="userSpaceOnUse">
<stop stop-color="#48C3B7"/>
<stop offset="1" stop-color="#64EAFF"/>
</linearGradient>
<clipPath id="clip0_5516_2128">
<rect width="16" height="16" fill="white" transform="translate(6 6)"/>
</clipPath>
</defs>
</svg>
